inDegrees=no
num_controls=7
num_derivatives=13
num_iterations=130
num_multipliers=7
num_parameters=0
num_slacks=7
num_states=26
objective=0.448417
objective_accelerations=0.049195
objective_balance=0.007431
objective_effort=0.036456
objective_height=0.350396
objective_ligament=0.004939
solver_duration=1844.471214
status=Solve_Succeeded
success=true
DataType=double
version=3
OpenSimVersion=4.5
endheader
time	/jointset/ground_pelvis/pelvis_tilt/value	/jointset/ground_pelvis/pelvis_tx/value	/jointset/ground_pelvis/pelvis_ty/value	/jointset/hip_l/hip_flexion_l/value	/jointset/hip_l/hip_adduction_l/value	/jointset/hip_l/hip_rotation_l/value	/jointset/back/lumbar_extension/value	/jointset/patellofemoral_l/patellar_flexion_l/value	/jointset/knee_l/knee_flexion_l/value	/jointset/knee_l/knee_adduction_l/value	/jointset/knee_l/knee_rotation_l/value	/jointset/ankle_l/ankle_angle_l/value	/jointset/subtalar_l/subtalar_angle_l/value	/jointset/ground_pelvis/pelvis_tilt/speed	/jointset/ground_pelvis/pelvis_tx/speed	/jointset/ground_pelvis/pelvis_ty/speed	/jointset/hip_l/hip_flexion_l/speed	/jointset/hip_l/hip_adduction_l/speed	/jointset/hip_l/hip_rotation_l/speed	/jointset/back/lumbar_extension/speed	/jointset/patellofemoral_l/patellar_flexion_l/speed	/jointset/knee_l/knee_flexion_l/speed	/jointset/knee_l/knee_adduction_l/speed	/jointset/knee_l/knee_rotation_l/speed	/jointset/ankle_l/ankle_angle_l/speed	/jointset/subtalar_l/subtalar_angle_l/speed	/forceset/tau_hip_flexion_l	/forceset/tau_hip_adduction_l	/forceset/tau_hip_rotation_l	/forceset/tau_knee_flexion_l	/forceset/tau_ankle_angle_l	/forceset/tau_subtalar_angle_l	/forceset/tau_lumbar_extension	lambda_cid13_p0	lambda_cid13_p1	lambda_cid13_p2	lambda_cid13_p3	lambda_cid13_p4	lambda_cid13_p5	lambda_cid14_p0	/jointset/ground_pelvis/pelvis_tilt/accel	/jointset/ground_pelvis/pelvis_tx/accel	/jointset/ground_pelvis/pelvis_ty/accel	/jointset/hip_l/hip_flexion_l/accel	/jointset/hip_l/hip_adduction_l/accel	/jointset/hip_l/hip_rotation_l/accel	/jointset/back/lumbar_extension/accel	/jointset/patellofemoral_l/patellar_flexion_l/accel	/jointset/knee_l/knee_flexion_l/accel	/jointset/knee_l/knee_adduction_l/accel	/jointset/knee_l/knee_rotation_l/accel	/jointset/ankle_l/ankle_angle_l/accel	/jointset/subtalar_l/subtalar_angle_l/accel	gamma_cid13_p0	gamma_cid13_p1	gamma_cid13_p2	gamma_cid13_p3	gamma_cid13_p4	gamma_cid13_p5	gamma_cid14_p0
0.5	-0.4448881778234409	-0.07371892679283917	0.7648945043335874	1.256990322915277	-0.3096424202303391	-0.04937149399455673	-0.3285016704916938	0.6805027027356703	0.6805027027356702	-0.173049997041978	0.1744012125736427	0.03387155947484229	-0.0494986418246959	-0.7376534815401089	-0.271318085808739	-0.490980418314993	2.360383078514542	-0.03635853632372708	0.6127023531507122	-0.6239584808010471	1.760570174415466	1.760570174415466	-0.00667283114873593	0.001647432343525661	0.2305057171737027	-0.01160295041553939	-0.2435380595821963	0.01889880112064139	-0.02140411451618202	-0.2026422127414212	0.1436172181790138	0.0407041002752113	0.219223651736297	7.271413114894399	-21.71154774447317	6.212247903874331	-5.406563784700696	-607.2284002251647	-58.07534095543009	-28.79220757792863	0.6233531533954698	0.6940383137262509	-0.3189780770078592	-1.496141258693747	0.5987548263909184	-0.2579188569872438	1.743761762803899	-1.050819196516045	-1.050819196516045	0.03160904871296447	-0.04725001110176111	-0.1071106466648503	0.5810638164590356	-2.497666038973224e-07	-8.080066896274723e-07	1.250911034433536e-06	4.926604057814678e-08	-3.378645169875291e-07	2.885572722383315e-08	-2.919164008327091e-07
0.51	-0.4522319847919732	-0.07639711222323416	0.7599697663998843	1.28051521850894	-0.3099776041693975	-0.04325744144687869	-0.3346541311710907	0.6980530285484563	0.6980530285484564	-0.1731182308502192	0.1744158011699988	0.03617024815812956	-0.04958730139544413	-0.7310160102599892	-0.2642978886992169	-0.4938689654500696	2.344295746474609	-0.03069478183473348	0.6100143642034737	-0.6064719132131551	1.749262398319217	1.749262398319218	-0.006969512648336241	0.001290167399977368	0.2291803044309237	-0.00614753347665447	-0.2515638138981482	0.01948663002918596	-0.02151283852067973	-0.2039152521568345	0.1435015320403689	0.04126142176038416	0.2254252170930323	6.99619842697929	-21.79776913970019	6.103048248967248	-5.351359213843351	-611.6225277436837	-57.69020783489874	-27.7771582653609	0.6976904567270072	0.709198824845633	-0.2591370512166559	-1.710120660104428	0.5475905807362643	-0.2885983546924347	1.760365536559543	-1.205580922562267	-1.205580922562213	-0.0596872603269366	-0.02731443764926349	-0.153014339291625	0.5249245201753043	-3.061665409831007e-07	-6.427392839329318e-07	1.521370561453848e-06	1.132854131895054e-07	-3.640754142025344e-07	8.401789338224936e-08	-3.161796409423117e-07
0.52	-0.459506667779423	-0.07900445799947783	0.7550190741909386	1.303870222485512	-0.3102566695994498	-0.03717314067689309	-0.3406298739186532	0.7154833117790034	0.7154833117790035	-0.1731893075756635	0.1744273471765859	0.0384541311637476	-0.04962197801928907	-0.7238286853235979	-0.2571501549784772	-0.4961712733635098	2.326404755096219	-0.02513483452253452	0.6067519976122239	-0.5886148944341556	1.736561657967646	1.736561657967647	-0.007241414589368166	0.001038914389709128	0.2275445816398569	-0.0008063610348861493	-0.2595895682141	0.02007445893773053	-0.02162156252517745	-0.2051882915722478	0.1433858459017241	0.04181874324555702	0.2316267824497676	6.716232703410681	-21.88684883512292	5.998520123213783	-5.309624011605498	-616.1084711463691	-57.38346689652984	-26.75554017599978	0.7333238846497865	0.7195456359697732	-0.2017302326805573	-1.856873126385497	0.5779933910319942	-0.3727943857894961	1.817852001025384	-1.329412047580593	-1.329412047580593	0.03656496042664199	-0.02604762444614474	-0.169172656322386	0.5582149170357159	-3.001897847795189e-07	-5.668701821182367e-07	1.500957757083848e-06	1.231597370520165e-07	-3.473998640567157e-07	1.169100359478142e-07	-3.047535314459513e-07
0.53	-0.4667068749768867	-0.08153975842583962	0.7500483135151947	1.327037540779214	-0.3104806322344729	-0.03112400704520194	-0.3464252219803708	0.7327796922800277	0.7327796922800277	-0.1732629915542192	0.17443665413211	0.04072015747619746	-0.04960378854128741	-0.7161265991252217	-0.2498945005574087	-0.4978795719339345	2.306766419259045	-0.01968304250104639	0.6029964679066454	-0.5704037472931663	1.722485391067712	1.722485391067713	-0.007505233077451628	0.0008333325885817418	0.2256109813157499	0.004416724096812395	-0.2674747589684792	0.02044923112413578	-0.02170620584449067	-0.2065824563013482	0.1433712866875105	0.04220254891222274	0.2376781263688003	6.463372542883528	-21.90703992859039	5.884976958133584	-5.240679616413344	-620.5851441228273	-56.98642340954653	-25.73402724254964	0.801537977192345	0.7309154748956379	-0.1402539197226082	-2.061230664955047	0.524837881719934	-0.3889364075294951	1.830391663064947	-1.48103193623779	-1.481031936237869	-0.05935737208886284	-0.01650354837037947	-0.2129063221211782	0.5001353447086051	-2.783277658412724e-07	-5.140707690224601e-07	1.405782319924525e-06	1.158863317394512e-07	-3.18028160757368e-07	1.367963873424297e-07	-2.844640831995311e-07
0.54	-0.4738274839144144	-0.08400203428204664	0.7450634950036469	1.34999969234403	-0.3106508637944786	-0.02511482953948407	-0.3520369294521926	0.7499284505270452	0.7499284505270449	-0.1733396141413883	0.174444167251538	0.04296535726507297	-0.04953421220527442	-0.7079090333364132	-0.2425452409475269	-0.4989828405243269	2.285371409319002	-0.01438861951904979	0.5987607724175681	-0.5518867764550068	1.70703720716626	1.70703720716626	-0.007829136312055989	0.0006801471704803071	0.2233792769249902	0.009471010567378214	-0.2753599497228593	0.02082400331054104	-0.0217908491638039	-0.2079766210304487	0.1433567274732966	0.04258635457888846	0.243729470287833	6.206380899212339	-21.93006481524145	5.77594950293606	-5.189607885644926	-625.1462551052691	-56.66255583229344	-24.71310530783375	0.8364198027362452	0.7382666737324617	-0.08072423667413488	-2.208207946959307	0.5465195831336861	-0.4688275424892488	1.879016740459428	-1.603795447884182	-1.603795447884182	0.02454801112246293	-0.01556834784098322	-0.228793469652922	0.5244551848091709	-2.388905626008433e-07	-4.867952668497426e-07	1.227890778402545e-06	8.964097074382227e-08	-2.746096497136904e-07	1.422933527606756e-07	-2.54368387825385e-07
0.55	-0.4808634829160293	-0.08639042627847521	0.7400706691735142	1.37273947941415	-0.3107686660109256	-0.0191507254278295	-0.3574619935162089	0.7669161702443258	0.7669161702443258	-0.1734189585065177	0.1744505153709775	0.0451869295264029	-0.04941463084945726	-0.699211420410478	-0.2351243573266893	-0.4994794997446596	2.262308268026048	-0.009193011738202989	0.5939799981461827	-0.5330889092737274	1.690288307462085	1.690288307462084	-0.008030042876220946	0.0005944532144665966	0.2208918638054936	0.01442287182184569	-0.2830425546889035	0.02103215345018563	-0.02185237034528143	-0.2094311201383625	0.1433751548030807	0.04281149176322791	0.2495700901851606	5.960176743460179	-21.88729332205479	5.657830340341294	-5.093925714247905	-629.6113747322853	-56.25145753927173	-23.69345219301131	0.8983057532424601	0.7453344230482516	-0.01876308644859796	-2.397061729485784	0.5028099079294005	-0.4949220207887389	1.885740768139927	-1.743153965340424	-1.743153965340486	-0.04099271152914363	-0.004570519041124475	-0.2652099960956286	0.4771360580371388	-2.086599440773629e-07	-4.51162729574661e-07	1.095620200400496e-06	7.167539749859907e-08	-2.39204119471346e-07	1.502385494566663e-07	-2.301575544800965e-07
0.5600000000000001	-0.4878101310452406	-0.08870434239533766	0.7350759514868311	1.395240296169536	-0.3108351664430902	-0.0132368729891539	-0.3626979650961769	0.7837298576178334	0.7837298576178334	-0.1735000284815573	0.1744561064309449	0.04738232870393835	-0.04924621398864109	-0.6900388588557307	-0.2276500650342979	-0.4993612118344226	2.237577346372199	-0.004128262662586007	0.5887104378217752	-0.5140682796453386	1.672230738411658	1.672230738411657	-0.008174258294114313	0.0005287352760616451	0.2181446601660929	0.01923811156717732	-0.2907251596549479	0.02124030358983023	-0.02191389152675897	-0.2108856192462764	0.1433935821328648	0.04303662894756737	0.2554107100824883	5.708341483879402	-21.84637041521115	5.543244215582059	-5.006159449198161	-634.1791070861599	-55.90336044378594	-22.67606273852734	0.9314095284986456	0.7489484080432153	0.04226518943982598	-2.541764019138472	0.5203478420877218	-0.5665847530936614	1.923569229881333	-1.865529317134723	-1.865529317134723	0.03588624037678091	-0.01157314432011781	-0.2807515736337501	0.4971308829820038	-1.894772272142205e-07	-4.055017501767427e-07	1.018094778622364e-06	6.36455695538624e-08	-2.13414166190601e-07	1.611216236859507e-07	-2.130085555694368e-07
0.5700000000000001	-0.4946627788632707	-0.09094331862709074	0.7300854885414106	1.417485715946914	-0.3108515726995895	-0.007378248650343623	-0.3677426900088714	0.8003566216446312	0.8003566216446313	-0.1735819086270705	0.1744611583077339	0.04954905944585423	-0.04903021241705711	-0.6804153486829509	-0.2201425848013922	-0.498627679016495	2.211238303089706	0.0008213927175897897	0.5829288779407251	-0.4948534475716379	1.652912349332293	1.652912349332292	-0.008187558673895564	0.000490822378603257	0.2151613511652236	0.02393534892341351	-0.2982104514988176	0.02129502640859693	-0.02194720419518088	-0.2123077507892276	0.1433378739365279	0.04314433843315393	0.2610408922561129	5.437484905530877	-21.75184501374533	5.420942082217964	-4.856399699937858	-638.5967961598893	-55.48545708803668	-21.66208292051227	0.9891012143133872	0.7520491288420699	0.1044122977678847	-2.720248885038547	0.4783462653378273	-0.5969536335545129	1.923928494406597	-1.996410684058481	-1.996410684058485	-0.01783761221041175	0.001263888981770427	-0.3131376101946735	0.4519383491457281	-1.709993273315582e-07	-3.592579153516299e-07	9.417894103818098e-07	5.640319848493651e-08	-1.88928059687878e-07	1.6914964168676e-07	-1.958512878145363e-07
0.58	-0.5014169356890437	-0.09310713979692917	0.725105463918129	1.439459690411021	-0.3108192680264159	-0.00158004231593261	-0.3725945689411707	0.816783918384491	0.8167839183844913	-0.1736635016633925	0.1744660639058363	0.05168475368838518	-0.04876805483447048	-0.670340660404342	-0.2126190526513732	-0.4972735474066208	2.18328828371786	0.005613923271978194	0.5766268369419223	-0.4754990835662512	1.632337281024087	1.632337281024086	-0.008116836455870158	0.0004994795387637235	0.2119373602891081	0.02846931376770163	-0.3056957433426877	0.02134974922736362	-0.02198051686360278	-0.2137298823321788	0.1432821657401914	0.04325204791874051	0.2666710744297377	5.159948538525776	-21.6586903919298	5.301760693909341	-4.708668218817722	-643.1296358263393	-55.12564077980128	-20.65292716990626	1.021645149664437	0.7521587914658698	0.1663849478291647	-2.863959237009004	0.4889228769302431	-0.6706809766442089	1.95147561621856	-2.116865162902749	-2.116865162902749	0.05269075993811251	-0.002259132796340418	-0.3288879486829946	0.4644763805923887	-1.534393286327771e-07	-3.122550129934271e-07	8.670729490739175e-07	5.018635264962466e-08	-1.661399861983931e-07	1.734594469249039e-07	-1.786832513322528e-07
0.59	-0.5080682103780987	-0.09519569982396184	0.7201420731068604	1.461146353397506	-0.310739750596783	0.004152625024858794	-0.377252246200291	0.8329993435665565	0.8329993435665565	-0.1737437849690329	0.1744711810511414	0.05378711112750746	-0.04846128747319012	-0.6598443205262406	-0.2050949239157176	-0.4953009117789998	2.153785477664605	0.01025639523121492	0.5698329468758717	-0.4560242341298749	1.610545721360221	1.610545721360219	-0.007938434880781813	0.0005278421521633976	0.2084984823296255	0.03284964904934541	-0.3129250251382826	0.02127026848031267	-0.02198763655768963	-0.2151468319635116	0.1432517732253095	0.04321688090669936	0.2720547305684712	4.898265718043712	-21.50715342588895	5.174291213778061	-4.542540448945344	-647.4673186118632	-54.68440251050342	-19.65011077056667	1.074102175222995	0.7522535493635988	0.2282277725648211	-3.03228993863465	0.4468565152006545	-0.6949420375749918	1.947309726539407	-2.240572747398935	-2.240572747398879	0.0005999297171015408	0.005788257194182819	-0.3567297183901117	0.4195843961080304	-1.3642855880887e-07	-2.676748665852865e-07	7.930612866047436e-07	4.440175837278415e-08	-1.445585798054824e-07	1.75064032982971e-07	-1.617473498981292e-07
